HIERARCHY
ROOT Hips
{
  OFFSET -187.679 86.5976 -156.378
  CHANNELS 6 Xposition Yposition Zposition Zrotation Xrotation Yrotation
  JOINT LeftUpLeg
  {
    OFFSET 8.64259 1.95398 -2.38835
    CHANNELS 3 Zrotation Xrotation Yrotation
    JOINT LeftLeg
    {
      OFFSET 43.7702 0 0
      CHANNELS 3 Zrotation Xrotation Yrotation
      JOINT LeftFoot
      {
        OFFSET 40.6238 0 0
        CHANNELS 3 Zrotation Xrotation Yrotation
        JOINT LeftToeBase
        {
          OFFSET 12.7242 0 0
          CHANNELS 3 Zrotation Xrotation Yrotation
          End Site
          {
            OFFSET 0 0 0
          }
        }
      }
    }
  }
  JOINT RightUpLeg
  {
    OFFSET -8.2249 1.95398 -2.59336
    CHANNELS 3 Zrotation Xrotation Yrotation
    JOINT RightLeg
    {
      OFFSET 43.5653 0 0
      CHANNELS 3 Zrotation Xrotation Yrotation
      JOINT RightFoot
      {
        OFFSET 40.6238 0 0
        CHANNELS 3 Zrotation Xrotation Yrotation
        JOINT RightToeBase
        {
          OFFSET 12.7242 0 0
          CHANNELS 3 Zrotation Xrotation Yrotation
          End Site
          {
            OFFSET 0 0 0
          }
        }
      }
    }
  }
  JOINT Spine
  {
    OFFSET 0.165834 0.87714 6.61349
    CHANNELS 3 Zrotation Xrotation Yrotation
    JOINT Spine1
    {
      OFFSET 7.38963 1.71661e-005 0
      CHANNELS 3 Zrotation Xrotation Yrotation
      JOINT Spine2
      {
        OFFSET 11.9445 1.14441e-005 0
        CHANNELS 3 Zrotation Xrotation Yrotation
        JOINT Spine3
        {
          OFFSET 14.7254 4.19617e-005 0
          CHANNELS 3 Zrotation Xrotation Yrotation
          JOINT Spine4
          {
            OFFSET 10.9679 0 0
            CHANNELS 3 Zrotation Xrotation Yrotation
            JOINT RightShoulder
            {
              OFFSET 2.46616 -1.6653 3.69651
              CHANNELS 3 Zrotation Xrotation Yrotation
              JOINT RightArm
              {
                OFFSET 13.0012 0 0
                CHANNELS 3 Zrotation Xrotation Yrotation
                JOINT RightForeArm
                {
                  OFFSET 28.7848 1.52588e-005 0
                  CHANNELS 3 Zrotation Xrotation Yrotation
                  JOINT RightHand
                  {
                    OFFSET 26.5688 1.52588e-005 0
                    CHANNELS 3 Zrotation Xrotation Yrotation
                    End Site
                    {
                      OFFSET 0 0 0
                    }
                  }
                }
              }
            }
            JOINT LeftShoulder
            {
              OFFSET 2.38034 -1.29275 -3.7523
              CHANNELS 3 Zrotation Xrotation Yrotation
              JOINT LeftArm
              {
                OFFSET 16.3182 6.10352e-005 0
                CHANNELS 3 Zrotation Xrotation Yrotation
                JOINT LeftForeArm
                {
                  OFFSET 27.0901 0 0
                  CHANNELS 3 Zrotation Xrotation Yrotation
                  JOINT LeftHand
                  {
                    OFFSET 24.5451 1.52588e-005 0
                    CHANNELS 3 Zrotation Xrotation Yrotation
                    End Site
                    {
                      OFFSET 0 0 0
                    }
                  }
                }
              }
            }
            JOINT Neck
            {
              OFFSET 5.0226 -0.0266342 0
              CHANNELS 3 Zrotation Xrotation Yrotation
              JOINT Head
              {
                OFFSET 6.69363 2.86102e-005 0
                CHANNELS 3 Zrotation Xrotation Yrotation
                End Site
                {
                  OFFSET 0 0 0
                }
              }
            }
          }
        }
      }
    }
  }
}
MOTION
Frames:	15
Frame Time:	0.0416667
4.47168 97.9729 -328.91 118.736 -49.3934 112.401 -167.588 11.4338 91.4415 -51.1772 76.7542 1.38999 71.1416 19.1848 8.63621 13.1087 -6.98919 1.32627 -143.433 -21.7141 136.244 57.6832 74.0234 -52.6724 76.5543 1.79246 1.71003 22.7397 -3.64682 7.7681 -2.56531 8.78505 -89.3117 9.34302 -4.80646 1.71805 -2.32046 -4.72622 1.92829 -24.9267 -5.10008 0.190508 -4.91406 -5.10007 0.190508 86.1754 -50.1763 -106.379 30.0099 -29.3601 -9.11482 -17.7255 -17.3942 -22.1472 -9.69246 -0.190359 -2.84293 -87.0048 -43.4433 82.2694 -33.2394 17.6709 12.4525 10.8809 -3.21275 -20.3062 -3.90053 -0.129127 -1.50785 -2.89763 -1.39145 -0.351887 10.0266 -1.26626 0.592817 
4.68284 97.4753 -328.527 114.905 -51.0759 107.395 -169.365 13.4651 83.636 -41.9092 70.9412 -3.87474 71.6828 17.5187 7.37762 12.7855 -6.63936 0.351882 -147.314 -22.2941 133.152 55.2985 70.4755 -51.8233 75.0401 2.19487 2.45176 24.1818 -3.0014 6.84774 -2.76643 8.7043 -89.4614 9.50788 -5.2733 1.47347 -2.15334 -5.20333 1.70468 -24.7756 -5.47163 -0.184233 -4.76292 -5.47162 -0.184243 83.9417 -48.3343 -110.362 23.7326 -30.1757 -15.8863 -15.3941 -15.6559 -18.5656 -10.1947 -0.0883947 -4.16634 -88.6501 -48.4081 80.6588 -30.9551 17.3469 11.1379 9.90486 -5.21376 -19.4663 -4.23641 -0.126253 -1.69432 -2.02429 -0.426739 5.11948 11.876 -1.21876 -1.30611 
4.70362 97.5081 -329.583 111.617 -60.1458 107.063 -174.797 18.1643 78.269 -42.356 52.6354 5.39283 73.3396 11.7645 3.5704 14.4136 -6.65945 1.83828 -161.518 -25.6365 121.185 16.3472 57.6078 -19.5332 75.9648 1.97336 3.86235 26.4544 -2.49965 6.91844 -1.90788 8.3379 -89.8369 10.2106 -3.72692 0.638983 -1.45572 -3.69518 0.802573 -24.0301 -3.7465 -0.512075 -4.01748 -3.74649 -0.512072 85.0355 -46.7424 -109.226 21.5995 -31.3919 -20.5171 -14.4277 -15.7651 -17.1592 -8.80635 -0.00902671 -5.21936 -89.8389 -51.2071 79.4492 -30.5717 17.6086 11.555 9.25299 -6.81168 -19.7594 -4.45012 -0.143889 -1.15664 -0.00517152 -0.0540119 8.19782 10.9468 -1.56499 -3.03763 
4.68873 97.3901 -328.777 123.039 -71.3213 118.45 -178.737 17.9617 75.8058 -39.2003 34.4937 8.95375 70.5945 5.46341 0.832932 12.5227 -7.95917 2.70581 -174.119 -32.4668 105.76 1.04582 38.2278 -1.55582 75.5808 -2.0476 3.64642 34.4824 -1.28393 9.18142 -0.747341 8.24519 -89.698 10.3879 -1.35042 0.718403 -1.28253 -1.31749 0.777143 -23.8236 -1.50389 0.279239 -3.8109 -1.50389 0.279237 85.0679 -46.5909 -109.228 22.142 -33.0696 -21.5505 -13.5589 -13.7632 -16.0105 -4.90935 0.0117907 -5.68895 -90.1177 -52.015 79.2102 -31.2257 16.4667 13.115 8.9719 -7.63933 -19.3705 -4.91336 -0.150005 -1.32757 0.480695 0.407665 8.3981 10.6997 -1.22866 -3.54165 
4.42351 98.4339 -325.124 147.96 -78.7166 142.351 179.892 17.054 75.0427 -37.9512 25.8749 9.24142 67.4686 2.78072 -0.0953427 10.8673 -9.52992 4.19597 175.101 -34.9183 92.8238 -3.00784 20.2159 2.03352 68.2656 -3.14399 0.53205 39.3094 0.415449 6.17049 0.197606 8.0996 -89.4592 10.6707 0.64261 1.01648 -1.00045 0.686715 0.987211 -23.5328 0.307432 1.1626 -3.52016 0.307427 1.1626 87.1499 -45.5808 -106.27 26.0807 -30.9207 -20.8274 -15.0939 -18.383 -17.4213 -11.0847 -0.145805 -3.60509 -90.7028 -53.1858 78.6109 -29.495 16.9613 9.28095 8.65137 -7.60856 -9.83004 -4.74371 -0.0824408 -4.39577 1.33596 0.213016 8.805 9.76939 -1.62839 -4.59107 
4.44356 99.0971 -320.646 -172.253 -81.4481 -179.899 179.686 14.9776 74.1766 -35.9193 18.3723 6.9867 69.6919 3.62335 -0.936065 10.3877 -9.3919 3.5161 163.687 -28.9039 78.5398 -11.889 4.60712 3.47195 54.9798 -0.160144 -1.66535 54.2069 2.83145 18.6407 0.722301 7.8901 -89.0744 11.0778 1.86723 1.66177 -0.592817 1.93855 1.57798 -23.1252 1.28162 2.146 -3.11254 1.28161 2.14599 85.7909 -46.661 -108.073 27.4681 -30.9158 -18.0079 -16.6085 -22.5422 -18.8554 -7.89476 0.0505557 -6.05183 -90.6263 -52.7381 78.625 -28.4769 17.454 10.2589 7.73726 -11.1195 -13.067 -4.85895 -0.133419 -1.91551 -0.175874 0.00234755 6.78484 10.2478 -1.30973 -3.27643 
4.60359 99.0685 -316.997 -134.447 -79.5363 -143.294 -179.18 13.4073 73.8007 -35.195 13.4127 4.75606 71.9226 4.53933 -0.83037 11.4872 -8.69676 3.20689 161.013 -15.5441 73.0419 -34.6089 -4.61161 0.0710673 64.6643 -3.18763 5.01927 35.9333 -1.23858 9.91783 1.16316 7.79299 -88.8972 11.2613 2.82816 1.91674 -0.407805 2.90977 1.79037 -22.9471 2.12155 2.67801 -2.93447 2.12154 2.678 85.9002 -46.4619 -107.966 27.7637 -31.7352 -15.9104 -16.2273 -19.2676 -19.2805 -8.73879 0.0181569 -5.63748 -90.8505 -52.5137 78.2528 -26.0067 16.6828 7.32315 7.34465 -13.039 -14.4659 -3.88405 -0.11708 -1.80318 0.547128 -0.173603 5.71763 9.99671 -1.28431 -2.55342 
4.38864 99.2663 -313.572 -125.117 -76.0991 -133.497 -178.721 9.81955 73.9532 -34.526 10.3299 4.22365 73.6855 5.30068 -0.694585 13.9694 -8.30856 4.72591 165.571 -1.97859 73.2668 -56.8717 -11.981 -4.14878 54.4485 0.30887 3.4922 29.3284 -2.18905 8.07913 1.24082 7.95481 -88.9194 10.9375 2.97031 1.86891 -0.731152 3.04967 1.7363 -23.2731 2.27148 2.67517 -3.2605 2.27148 2.67517 85.9122 -46.8421 -107.823 26.3535 -30.8041 -14.9861 -16.2567 -16.1994 -20.0551 -10.0437 -0.070631 -4.3506 -90.7506 -51.8207 78.2454 -22.919 14.5092 1.73226 8.71843 -9.76065 -14.5171 -3.87155 -0.105748 -2.76518 1.89855 0.513083 4.24983 10.593 -0.443714 -2.42578 
3.52912 99.5828 -309.865 -126.182 -74.9168 -132.274 -177.651 6.61914 76.3214 -36.0363 10.3855 4.84911 76.5185 5.93051 -1.54222 12.6718 -8.05371 3.02645 171.04 4.90664 78.4518 -66.4521 -11.9329 -5.79602 61.2891 -1.52663 0.79446 28.7782 -1.63049 5.66636 1.01781 8.1562 -89.1706 10.5454 2.40825 1.43266 -1.12402 2.46896 1.32524 -23.6647 1.86642 2.09022 -3.65202 1.86642 2.09021 85.6095 -47.6168 -108.042 24.5378 -27.4185 -14.6771 -16.5923 -16.3036 -19.5465 -10.9541 -0.250589 -2.43019 -91.0116 -51.3315 77.7541 -18.0556 15.9258 -4.85523 8.59097 -9.88358 -14.0282 -3.08104 -0.0991307 -2.1849 2.74427 0.789824 2.64722 10.706 0.138279 -1.71173 
2.76967 100.316 -306.163 -127.434 -75.0291 -131.435 -177.526 2.24541 78.2431 -33.1638 10.442 5.78512 77.3146 6.34658 -1.89003 15.1581 -7.7891 4.82782 176.278 10.4159 84.2141 -65.1542 -1.94063 -5.82245 71.3713 -4.80509 -0.0343493 25.2334 -2.65128 6.54116 0.6571 8.23728 -89.3772 10.3912 1.59447 1.09805 -1.27921 1.64124 1.0268 -23.8156 1.19078 1.52647 -3.80297 1.19077 1.52646 86.3449 -47.0202 -107.089 25.5408 -25.2103 -14.1178 -16.3686 -15.7352 -18.401 -10.101 -0.133362 -3.59392 -90.4618 -49.9726 78.2599 -14.4018 16.7325 -11.0995 8.94226 -8.8066 -13.1197 -3.18038 -0.0953715 -3.2612 2.56314 1.59856 2.03964 10.3536 0.906226 -2.85395 
1.58088 101.106 -302.485 -130.222 -76.5886 -131.629 -176.853 -0.961334 81.2849 -31.3732 13.0727 7.28501 77.5124 6.55528 -1.9134 15.0622 -7.7638 4.69008 -179.469 14.7658 90.5308 -54.6833 7.79734 -5.14915 71.5011 -4.95278 0.066548 24.1699 -2.07691 4.0909 0.271532 8.21186 -89.625 10.4479 0.712955 0.683038 -1.22305 0.742341 0.650988 -23.7573 0.474729 0.865724 -3.74471 0.474728 0.86572 86.0623 -47.7025 -107.313 24.8901 -25.6294 -13.0179 -14.8422 -12.4153 -16.4533 -11.6546 0.0761354 -5.96151 -90.3681 -47.5518 77.8508 -12.6698 17.066 -15.4177 9.15635 -7.96937 -14.7946 -5.34687 -0.0599845 -4.38815 1.88897 1.85663 -1.29757 10.7003 1.76372 -2.18203 
0.754862 101.358 -298.314 -137.605 -79.1661 -137.466 -176.284 -3.99868 83.3874 -30.0955 16.6345 8.49775 78.8271 7.77018 -1.04609 12.2694 -7.65053 1.89301 -178.124 17.087 93.5014 -39.59 7.45493 -3.84198 67.5351 -3.96617 -0.531506 25.6073 -2.33276 5.7915 -0.142447 8.24751 -89.727 10.3787 -0.158737 0.555972 -1.29232 -0.134106 0.562422 -23.8268 -0.318492 0.482571 -3.81414 -0.318485 0.482568 85.1234 -49.7415 -108.1 24.7875 -22.3677 -8.32975 -18.1406 -14.1723 -22.1157 -11.5727 -0.158996 -3.49462 -90.2024 -44.3651 77.3416 -12.2081 16.9607 -19.3273 9.17725 -8.52329 -18.0349 -6.29852 -0.028399 -5.99999 2.93415 1.27862 -6.25822 10.5045 2.34546 0.481176 
0.11685 100.906 -293.483 -144.479 -80.8245 -143.795 -175.209 -7.1695 85.1929 -29.1691 18.9542 8.28983 80.7346 9.26531 -0.294337 11.9928 -7.23626 0.844284 -179.193 17.0424 94.5098 -23.5437 -1.44694 -1.50393 64.7758 -3.03134 -1.03656 25.3356 -2.78517 6.99445 -0.375635 8.2889 -89.7845 10.2974 -0.649768 0.484174 -1.37349 -0.627832 0.512292 -23.9097 -0.765244 0.266503 -3.89701 -0.765242 0.2665 84.8512 -51.216 -108.04 25.098 -20.006 -4.85997 -19.2786 -14.2619 -23.4222 -11.0236 -0.227762 -2.69746 -90.0799 -42.7052 77.1263 -12.7061 15.4511 -23.4384 10.6621 -5.07335 -20.0784 -3.40765 -0.080824 -4.84275 3.8398 0.771691 -9.14442 10.8991 2.60507 2.24134 
-0.586036 99.9483 -287.901 -150.824 -82.2176 -149.397 -173.632 -10.8181 87.7113 -28.1157 21.4511 8.04842 83.3998 10.6361 -1.06598 14.6631 -7.93452 4.63613 -179.756 15.49 96.3169 -9.86841 -0.18112 0.797371 63.4797 -2.70419 0.497416 26.3443 -2.3043 6.18804 -0.587068 8.26944 -89.9281 10.3363 -1.13661 0.241442 -1.3342 -1.12488 0.291239 -23.8734 -1.15662 -0.111366 -3.86071 -1.15662 -0.111366 83.8799 -51.7129 -109.316 25.6107 -20.4097 -2.24894 -18.0065 -14.5091 -20.742 -8.72346 -0.0786597 -4.17233 -90.2784 -43.3353 76.9662 -13.1413 15.2596 -25.658 11.4947 -3.86933 -21.7299 -2.84482 -0.084677 -4.70739 4.15995 0.595155 -9.24615 10.541 2.379 1.48168 
-1.17712 98.5573 -281.583 -159.37 -83.0071 -157.963 -172.048 -15.5914 89.5656 -26.462 23.6141 7.84546 85.4377 11.5295 -2.07526 14.1858 -7.73377 3.81735 179.983 17.3959 97.2503 -12.9528 1.53932 1.55961 61.8815 -1.66764 -0.65447 25.5096 -2.20338 5.37046 -0.744755 8.20076 -89.9516 10.4738 -1.46127 0.225543 -1.19642 -1.44992 0.289638 -23.738 -1.46148 -0.224157 -3.72535 -1.46147 -0.224151 83.6191 -52.2651 -109.517 26.9315 -20.4877 -0.45083 -16.3629 -14.6092 -17.0244 -7.53584 0.0227937 -5.70931 -90.7759 -44.2118 76.3945 -13.7137 17.2002 -25.6318 12.0368 -2.56233 -22.8199 -2.78701 -0.0904017 -3.94066 4.04404 0.522176 -9.54767 9.9867 2.27586 0.868041 
